<?xml version="1.0" encoding="utf-8"?>
<!-- Generator: Adobe Illustrator 19.0.0, SVG Export Plug-In . SVG Version: 6.00 Build 0)  -->
<svg version="1.1" id="Layer_1" xmlns="http://www.w3.org/2000/svg" xmlns:xlink="http://www.w3.org/1999/xlink" x="0px" y="0px"
	 viewBox="-127 -166 495 467" style="enable-background:new -127 -166 495 467;" xml:space="preserve">
<style type="text/css">
	.st0{fill:#FFB773;}
	.st1{fill:#FF9155;}
	.st2{fill:#414356;}
	.st3{display:none;}
</style>
<g>
	<g>
		<g>
			<path class="st0" d="M155.2,128.2L155.2,128.2c18.5-5.4,30.8-22.8,29.6-42l-1.5-23.5l5.6-26.2l24-7c9.3-2.7,14.5-12.5,11.7-21.7
				c-1.3-4-4-7.4-7.6-9.7L199.1-13c-5.5-3.4-11.7-5-18-4.8l0,0l-18.2-19.3l-3.8,28.9l0,0c-3.5,3.5-6.1,7.8-7.7,12.6L146,20.7
				L132.7,29c-27.7,17.5-40.6,51.2-31.4,82.7l0,0"/>
			<path class="st0" d="M155.2,135.1c7.6,0.2,15.2,0.3,22.8,0.5c8.6-7.6,19.6-6,23.1-0.8c2.5,3.8,1.5,10.2-2.4,15.4
				c-18.5,2.9-36.9,5.8-55.4,8.7c-3.9-0.5-16.7-2.7-27.2-13.7c-8.8-9.2-11.2-19.6-12-23.7c-2.3-4.7-4.6-9.4-6.9-14.2
				c-3-19.7,9.7-37.8,27.3-41.4c17.3-3.6,34.7,7.7,39.5,21.7c1.4,4.2,2,8.4,1.8,12.6"/>
			<path class="st0" d="M170.3,71.6l13.3,0c5.2,0,10.3-1.7,14.6-4.8l12.8-9.4c3.1-2.3,3.9-6.5,2-9.8l0,0c-2.1-3.5-6.6-4.8-10.1-2.8
				L199,47c-8.5,4.8-19.1,4.1-26.9-1.7l0,0"/>
		</g>
		<path class="st1" d="M96.7,93.2c4.6,17.3,9.2,34.7,13.8,52c-0.8-0.1-1.5-0.3-2.2-0.4c-3-1.7-7.8-4.2-13.9-6.8c-4-1.7-6.9-2.6-8-3
			c-5.5-1.9-13.7-6.1-25.7-16.1l-8.7-60.7c-0.1-3.6-1.4-5.8-2.2-7c-3.8-5.3-12.3-7-21.1-4c-2.8-0.9-5.6-1.8-8.4-2.7
			c1.2,2.6,1.8,3.9,2,3.8c0.6-0.2-3.3-12.6-11.6-37.3C6.7-16.9,26.2-43,54.4-47.1c28.2-4.1,54.3,15.4,58.4,43.6
			c2.3,7.5,4.7,14.9,7,22.4"/>
		<path class="st2" d="M342.9,280.4c0-0.3-0.1-0.5-0.1-0.5c0-0.2-0.1-0.3-0.1-0.5c0-0.2-0.1-0.3-0.1-0.5c0-0.2-0.1-0.3-0.1-0.5
			c-0.1-0.2-0.1-0.3-0.2-0.5c-0.1-0.2-0.1-0.3-0.2-0.5c-0.1-0.2-0.2-0.3-0.2-0.5s-0.2-0.3-0.2-0.5c-0.1-0.1-0.2-0.3-0.3-0.4
			c-0.1-0.2-0.2-0.3-0.3-0.4c-0.1-0.1-0.2-0.3-0.3-0.4c-0.1-0.2-0.2-0.3-0.4-0.4c0-0.1-0.1-0.1-0.2-0.2L263,189.6
			c37.8-38.2,58.6-88.8,58.6-142.6c0-54.1-21.1-105-59.4-143.3c-32.9-32.9-75.1-53.1-120.7-58.1c-0.1,0-0.1,0-0.2,0
			c-7.4-0.8-14.8-1.2-22.3-1.2c-7.5,0-15,0.4-22.3,1.2c-0.1,0-0.2,0-0.3,0c-45.6,5-87.8,25.2-120.7,58.1C-62.6-58-83.7-7.1-83.7,47
			c0,53.8,20.8,104.4,58.6,142.6l-21.5,23.7c-0.4-0.2-0.4-0.3-0.4-0.3c0-0.1,0.4,0,0.6,0.1c-18.6,20.5-37.3,41-55.9,61.5
			c0,0.1-0.1,0.1-0.1,0.2c-0.1,0.1-0.3,0.3-0.4,0.4c-0.1,0.1-0.2,0.3-0.3,0.4c-0.1,0.2-0.2,0.3-0.3,0.5s-0.2,0.3-0.3,0.4
			c-0.1,0.2-0.2,0.3-0.3,0.5s-0.2,0.3-0.2,0.5c-0.1,0.2-0.1,0.3-0.2,0.5c-0.1,0.2-0.1,0.3-0.2,0.5c-0.1,0.2-0.1,0.3-0.2,0.5
			c0,0.2-0.1,0.3-0.1,0.5c0,0.2-0.1,0.3-0.1,0.5c0,0.2-0.1,0.4-0.1,0.5c0,0.2,0,0.3,0,0.5c0,0.2,0,0.4,0,0.6v0.5c0,0.2,0,0.4,0,0.6
			c0,0.2,0,0.3,0,0.5c0,0.2,0.1,0.3,0.1,0.5c0,0.2,0.1,0.3,0.1,0.5c0,0.2,0.1,0.3,0.1,0.5c0,0.2,0.1,0.3,0.2,0.5
			c0,0.2,0.1,0.3,0.2,0.5c0.1,0.2,0.1,0.3,0.2,0.5c0.1,0.2,0.2,0.3,0.2,0.5c0.1,0.1,0.2,0.3,0.2,0.5c0.1,0.2,0.2,0.3,0.3,0.5
			c0.1,0.1,0.2,0.3,0.3,0.4c0.1,0.1,0.2,0.3,0.3,0.4c0.1,0.1,0.2,0.3,0.3,0.4c0.1,0.1,0.2,0.3,0.3,0.4c0.1,0.1,0.3,0.3,0.4,0.4
			c0.1,0,0.1,0.1,0.2,0.2c0.1,0.1,0.1,0.1,0.2,0.2c0.1,0.1,0.3,0.2,0.4,0.3c0.1,0.1,0.3,0.2,0.4,0.3c0.1,0.1,0.3,0.2,0.4,0.3
			c0.2,0.1,0.3,0.2,0.5,0.3c0.1,0.1,0.3,0.2,0.4,0.2c0.2,0.1,0.3,0.2,0.5,0.2c0.1,0.1,0.3,0.1,0.4,0.2c0.2,0.1,0.3,0.1,0.5,0.2
			c0.1,0.1,0.3,0.1,0.4,0.1c0.2,0,0.4,0.1,0.6,0.1c0.1,0,0.3,0.1,0.4,0.1c0.2,0,0.4,0.1,0.6,0.1c0.1,0,0.3,0,0.4,0
			c0.3,0,0.7,0.1,1,0.1H-9c5.9,0,10.7-4.8,10.7-10.7C1.7,275.8-3.1,271-9,271h-61.2l25-27.6c4.8-5.3,9.6-10.5,14.4-15.8l21.5-23.7
			c30.3,24.9,66.8,40.2,105.7,44.5c0.1,0,0.2,0,0.2,0c7.4,0.8,14.8,1.2,22.3,1.2c7.5,0,15-0.4,22.3-1.2c0.1,0,0.1,0,0.2,0
			c38.9-4.3,75.4-19.6,105.7-44.5l61,67.1H247c-5.9,0-10.7,4.8-10.7,10.7c0,5.9,4.8,10.7,10.7,10.7h85.3c0.3,0,0.7,0,1-0.1
			c0.1,0,0.3,0,0.4,0c0.2,0,0.4-0.1,0.6-0.1c0.2,0,0.3-0.1,0.4-0.1c0.2,0,0.4-0.1,0.5-0.1c0.2,0,0.3-0.1,0.4-0.1
			c0.2-0.1,0.3-0.1,0.5-0.2c0.2-0.1,0.3-0.1,0.4-0.2c0.2-0.1,0.3-0.2,0.5-0.2c0.1-0.1,0.3-0.1,0.4-0.2c0.2-0.1,0.3-0.2,0.5-0.3
			c0.1-0.1,0.3-0.2,0.4-0.3s0.3-0.2,0.4-0.3c0.1-0.1,0.3-0.2,0.4-0.3c0.1-0.1,0.1-0.1,0.2-0.2s0.1-0.1,0.2-0.2l0.4-0.4
			c0.1-0.1,0.2-0.3,0.3-0.4c0.1-0.1,0.2-0.3,0.3-0.4c0.1-0.2,0.2-0.3,0.3-0.4s0.2-0.3,0.3-0.4c0.1-0.2,0.2-0.3,0.3-0.5
			c0.1-0.2,0.2-0.3,0.2-0.5c0.1-0.2,0.2-0.3,0.2-0.5c0.1-0.2,0.1-0.3,0.2-0.5s0.1-0.3,0.2-0.5c0-0.2,0.1-0.4,0.2-0.5
			c0-0.2,0.1-0.3,0.1-0.5c0-0.2,0.1-0.4,0.1-0.5c0,0,0-0.3,0.1-0.5C343,282.2,343,281.1,342.9,280.4z M247.2,175.2c-0.5,0.5-1,1-1,1
			c-0.3,0.3-0.7,0.6-1,0.9c-6.5,5.5-13.1,11-19.6,16.5c-6,4.4-12.2,8.3-18.6,11.9c-7.5,3.5-15,7.1-22.5,10.6
			c-10.8,4.2-22,7.3-33.5,9.3c-7.1,0.8-14.2,1.7-21.3,2.5c-3.5,0.2-7.1,0.3-10.7,0.3c-3.6,0-7.1-0.1-10.7-0.3
			c-7.1-0.8-14.2-1.7-21.3-2.5c-10.8-1.9-21.3-4.8-31.4-8.6c-8-3.7-16-7.3-24-11c-11.9-6.6-23.2-14.5-33.5-23.8
			c-0.3-0.4-0.6-0.7-1-1c-0.3-0.3-0.7-0.6-1.1-0.9c-1.8-1.6-3.5-3.3-5.2-5C-43.5,141-62.3,95.4-62.3,47c0-48.4,18.9-94,53.1-128.2
			c26.6-26.6,60-43.9,96.2-50.3c7.1-0.8,14.2-1.7,21.3-2.5c3.5-0.2,7.1-0.3,10.7-0.3c3.6,0,7.1,0.1,10.7,0.3
			c7.1,0.8,14.2,1.7,21.3,2.5c36.2,6.4,69.6,23.7,96.2,50.3C272-56.4,283.1-31,286.5-22.8C327.7,78.5,247.8,174.7,247.2,175.2z"/>
	</g>
	<path class="st2" d="M43,199"/>
</g>
<path class="st3" d="M355-39"/>
<g>
	<g>
		<path class="st2" d="M106.3,154.2 M114.2,157.2c6.2,1.5,13.3,2.7,21.2,3.4c4.2,0.4,8.1,0.5,11.8,0.5c6.5,0,11.5,0.1,18.7-0.5
			c15-1.2,24.8-2,33.8-7.1c4.5-2.6,12.8-7.3,12.6-14c-0.2-5.8-6.7-11.5-16.1-13.7c-8-0.1-15.9-0.3-23.9-0.4
			c8.5-6.4,14.1-12.8,15.8-17.2c0.9-2.1,1.6-4.6,1.6-4.6c1.7-5.8,2.2-11.8,1.7-17.8l-0.9-10c0.8-0.2,1.7-0.4,2.5-0.7
			c3.5-1.1,6.7-2.8,9.6-5.1l13-10.2c5.3-4.2,6.7-11.7,3.1-17.4c-3.8-6.1-11.9-8.1-18.1-4.3l-3.9,2.4c-1.2,0.8-2.5,1.4-3.9,1.8
			l0.7-3.8l21.8-7c6-2,10.9-6.2,13.8-11.8c2.8-5.7,3.2-12.1,1.2-18.1c-1.8-5.3-5.6-9.9-10.7-12.8l-19-11c-5.9-3.4-12.6-5.2-19.5-5.2
			l-18-17.9c-1.5-1.5-3.7-2-5.7-1.3c-2,0.7-3.4,2.5-3.6,4.6l-2.8,28.5c-3.5,4.1-6.1,9-7.6,14.1l-4.6,15.3l-11.9,8
			c-14.9,10-25.9,24.3-31.8,41.3c-4.4,12.6-5.6,25.9-3.6,38.8c0.2,3.1,0.9,6.3,1.9,9.4l4.6,14.1c1.7,5.3,4.3,10,7.7,14
			c-3.4-0.4-10.4-1.8-17.3-7c-4.6-3.5-7.4-7.5-9-10.1c-4.5-4.1-11.7-11.6-16.7-23.1c-6.8-15.4-6-29.4-5.2-35.8
			c-0.2-1.4-0.5-3.4-1.3-5.7c0,0-1.8-5.3-5.3-9.5c-4.4-5.3-13.4-9-23.9-8.9l-1.4,0.8l-8.4-26C8.9-8.7,22.7-35.7,47.9-43.8
			S100-38.1,108.1-13l8.2,25.4c0.9,2.9,4,4.4,6.9,3.5s4.4-4,3.5-6.9l-8.2-25.4c-10-30.8-43.1-47.8-74-37.8s-47.8,43.1-37.8,74
			l10.5,32.3c0.5,1.6,1.7,2.8,3.2,3.4c1.5,0.6,3.2,0.5,4.7-0.3l7.2-4.1c5.4,2.2,7.6,5.3,8.6,6.9c1.8,3,2.4,6.8,3.4,13.4
			c0.2,1,0.3,1.8,0.3,2.4c-0.4,5.1-0.5,13,2.2,22.1c3.7,12.5,10.6,20.7,14.5,24.7c6.5,7,12.5,12.4,17.2,16.3
			c12.5,10.2,27.4,17.5,27.4,17.5l0,0C108.7,155.3,111.4,156.2,114.2,157.2z M217,8.5c-3-0.4-5.7,1.7-6.1,4.7
			c-0.4,2.9,1.6,5.6,4.5,6.1c-1.1,0.8-2.3,1.4-3.6,1.9l-24.9,8c-1.9,0.6-3.3,2.2-3.7,4.2l-1.8,9.5c-2.5-0.6-4.9-1.6-7.1-3.1
			c-2.5-1.7-5.9-1.1-7.6,1.3c-1.7,2.5-1.1,5.9,1.3,7.6c5.3,3.7,11.6,5.6,17.8,5.6c0,0,0.1,0,0.1,0c5.6,0,11.2-1.5,16.1-4.5l3.9-2.4
			c1.1-0.7,2.5-0.3,3.2,0.8c0.6,1,0.4,2.3-0.5,3.1l-13,10.2c-3.4,2.7-7.5,4.2-11.9,4.3l-13.9,0.5c-3,0.1-5.4,2.6-5.3,5.6
			c0.1,3,2.6,5.4,5.6,5.3l9.1-0.3l0.9,10c0.4,4.7,0,9.3-1.3,13.8c-3.4,12-12.6,21.5-24.5,25.3c-2.9,0.9-4.4,4-3.5,6.9c0,0,0,0,0,0
			s0,0,0,0c0.8,2.4,6.9,3.5,6.9,3.5c7.2,1.2,19.2,0.1,25.5-0.4c6.6-0.5,10.2-0.7,13.6,1.7c2.2,1.5,3.4,3.5,4.1,5
			c-6.3,2.9-15.4,6.2-26.9,7.5c-8.9,1-16.5,0.6-22.4-0.2c-3,0.1-6,0.2-9,0.3c-4.1-0.6-11.5-2.4-19.1-7.6
			c-9.3-6.4-13.9-14.6-15.7-18.5c-1.1-3.4-2.2-6.8-3.3-10.2c-1.2-3.8-2.1-7.6-2.7-11.5c-0.1-0.6-0.1-2.4,0.1-4.6
			c0.2-1.4,0.4-2.7,0.6-3.7c0.1-0.5,0.3-1.1,0.5-1.8c0.1-0.2,0.9-2.8,2.3-5.4c2.7-4.9,6.8-8.4,7-8.6c3.2-2.7,7-4.7,11.2-5.8
			c14.5-4,30,4,35.3,18c1.3,3.6,2,7.3,1.9,11c-0.1,3,2.3,5.5,5.3,5.6c3,0.1,5.5-2.3,5.6-5.3c0.1-5.1-0.8-10.2-2.6-15.1
			c-3.5-9.4-10.4-17.1-19.4-21.7c-9-4.6-19.3-5.7-28.9-3c-6.2,1.7-11.7,4.7-16.4,8.9c4.7-15.1,14.4-28.7,28.2-38l13.6-9.1
			c1-0.7,1.8-1.8,2.2-3l5.1-17.2c1.2-4.2,3.5-8,6.4-11.2c0.8-0.9,1.3-2,1.4-3.2l1.9-18.8l11.3,11.2c1.1,1.2,2.7,1.9,4.4,1.8
			c5.6-0.3,11.1,0.9,15.9,3.7l19,11c2.8,1.6,4.9,4.1,5.9,6.9c0.4,1.3,0.7,2.6,0.7,3.8L217,8.5z"/>
	</g>
</g>
<g>
	<g>
		<path class="st2" d="M183.1,2c0.4,1.4,1.4,2.5,2.7,3.2c1.3,0.7,2.8,0.8,4.2,0.3c1.4-0.4,2.5-1.4,3.2-2.7c0.7-1.3,0.8-2.8,0.3-4.2
			c-0.4-1.4-1.4-2.5-2.7-3.2c-1.3-0.7-2.8-0.8-4.2-0.3c-1.4,0.4-2.5,1.4-3.2,2.7C182.7-0.8,182.6,0.7,183.1,2z"/>
	</g>
</g>
<g>
	<g>
		<path class="st2" d="M47.8-26.2c0.9,2.9,4,4.4,6.9,3.5l0.3-0.1c0,0,0,0,0.1,0c2.8-0.9,4.4-3.9,3.5-6.8c-0.9-2.9-3.9-4.5-6.8-3.6
			c-0.1,0-0.3,0.1-0.4,0.1C48.5-32.1,46.9-29.1,47.8-26.2z"/>
	</g>
</g>
<g>
	<g>
		<path class="st2" d="M70.1-22.8c8,2.5,14.3,8.7,16.9,16.6c0.9,2.9,4,4.4,6.9,3.5s4.4-4,3.5-6.9c-3.7-11.3-12.7-20.2-24.1-23.7
			c-2.9-0.9-5.9,0.7-6.8,3.6C65.6-26.8,67.2-23.7,70.1-22.8z"/>
	</g>
</g>
<path class="st3" d="M154.7,210.7c-2.9,1.3-5.8,2.7-8.7,4"/>
<path class="st3" d="M206.7,196"/>
<path class="st3" d="M185.3,154"/>
</svg>
