<?xml version="1.0" encoding="iso-8859-1"?>
<!-- Generator: Adobe Illustrator 19.0.0, SVG Export Plug-In . SVG Version: 6.00 Build 0)  -->
<svg version="1.1" id="Capa_1" xmlns="http://www.w3.org/2000/svg" xmlns:xlink="http://www.w3.org/1999/xlink" x="0px" y="0px"
	 viewBox="0 0 512 512" style="enable-background:new 0 0 512 512;" xml:space="preserve">
<rect x="71.694" y="414.816" style="fill:#AD644B;" width="369.522" height="33.785"/>
<rect x="71.694" y="414.816" style="fill:#99523F;" width="24.191" height="33.785"/>
<path style="fill:#AD644B;" d="M437.862,414.814v75.468c0,5.193,4.164,9.403,9.301,9.403h24.504c5.136,0,9.301-4.21,9.301-9.403
	v-75.468L437.862,414.814L437.862,414.814z"/>
<path style="fill:#99523F;" d="M457.863,490.282v-75.468h-20.001v75.468c0,5.193,4.164,9.403,9.301,9.403h20.001
	C462.027,499.684,457.863,495.475,457.863,490.282z"/>
<path style="fill:#AD644B;" d="M32.783,414.814v75.468c0,5.193,4.164,9.403,9.301,9.403h24.504c5.136,0,9.301-4.21,9.301-9.403
	v-75.468L32.783,414.814L32.783,414.814z"/>
<path style="fill:#99523F;" d="M52.784,490.282v-75.468H32.783v75.468c0,5.193,4.164,9.403,9.301,9.403h20.001
	C56.948,499.684,52.784,495.475,52.784,490.282z"/>
<path style="fill:#5DA3E2;" d="M143.605,372.629H66.337c-6.6,0-12.001-5.4-12.001-12.001V31.876c0-6.6,5.4-12.001,12.001-12.001
	h77.268c6.6,0,12.001,5.4,12.001,12.001v328.752C155.605,367.228,150.205,372.629,143.605,372.629z"/>
<path style="fill:#4887CC;" d="M74.338,360.628V31.876c0-6.6,5.4-12.001,12.001-12.001H66.337c-6.6,0-12.001,5.4-12.001,12.001
	v328.752c0,6.6,5.4,12.001,12.001,12.001h20.001C79.738,372.629,74.338,367.228,74.338,360.628z"/>
<path style="fill:#FFD261;" d="M244.874,372.629h-77.268c-6.6,0-12.001-5.4-12.001-12.001V31.876c0-6.6,5.4-12.001,12.001-12.001
	h77.268c6.6,0,12.001,5.4,12.001,12.001v328.752C256.875,367.228,251.474,372.629,244.874,372.629z"/>
<path style="fill:#F8BF00;" d="M175.395,360.628V31.876c0-6.6,5.4-12.001,12.001-12.001h-19.789c-6.6,0-12.001,5.4-12.001,12.001
	v328.752c0,6.6,5.4,12.001,12.001,12.001h19.789C180.795,372.629,175.395,367.228,175.395,360.628z"/>
<rect x="54.343" y="268.477" style="fill:#73BBEF;" width="101.266" height="27.429"/>
<rect x="54.343" y="268.477" style="fill:#5DA3E2;" width="19.999" height="27.429"/>
<rect x="54.343" y="98.917" style="fill:#73BBEF;" width="101.266" height="27.429"/>
<rect x="54.343" y="98.917" style="fill:#5DA3E2;" width="19.999" height="27.429"/>
<rect x="155.609" y="268.477" style="fill:#FCD98B;" width="101.266" height="27.429"/>
<rect x="155.609" y="268.477" style="fill:#FFD261;" width="19.787" height="27.429"/>
<rect x="155.609" y="98.917" style="fill:#FCD98B;" width="101.266" height="27.429"/>
<rect x="155.609" y="98.917" style="fill:#FFD261;" width="19.787" height="27.429"/>
<path style="fill:#AD644B;" d="M496.074,372.629H17.677c-5.136,0-9.301,4.164-9.301,9.301v24.504c0,5.136,4.164,9.301,9.301,9.301
	h478.397c5.136,0,9.301-4.164,9.301-9.301v-24.504C505.375,376.793,501.21,372.629,496.074,372.629z"/>
<path style="fill:#99523F;" d="M496.074,395.734H17.677c-5.136,0-9.301-4.164-9.301-9.301v20.001c0,5.136,4.164,9.301,9.301,9.301
	h478.397c5.136,0,9.302-4.164,9.302-9.301v-20.001C505.375,391.57,501.21,395.734,496.074,395.734z"/>
<path style="fill:#C64757;" d="M457.6,345.481l-72.607,26.427c-6.202,2.257-13.124-0.97-15.382-7.172L257.172,55.809
	c-2.257-6.202,0.97-13.124,7.172-15.382l72.607-26.427c6.202-2.257,13.124,0.97,15.382,7.172l112.44,308.926
	C467.03,336.302,463.802,343.224,457.6,345.481z"/>
<path style="fill:#B2364B;" d="M388.207,357.968L275.767,49.042c-2.257-6.202,0.97-13.124,7.172-15.382l-18.596,6.768
	c-6.202,2.257-9.43,9.18-7.172,15.382l112.44,308.926c2.257,6.202,9.18,9.43,15.382,7.172l18.596-6.768
	C397.386,367.397,390.465,364.17,388.207,357.968z"/>
<rect x="339.726" y="260.007" transform="matrix(-0.9397 0.342 -0.342 -0.9397 850.7926 397.434)" style="fill:#D8556B;" width="101.266" height="27.429"/>
<rect x="342.189" y="273.938" transform="matrix(-0.9397 0.342 -0.342 -0.9397 781.311 437.5479)" style="fill:#C64757;" width="19.787" height="27.429"/>
<rect x="281.739" y="100.667" transform="matrix(-0.9397 0.342 -0.342 -0.9397 683.82 108.195)" style="fill:#D8556B;" width="101.266" height="27.429"/>
<rect x="284.194" y="114.608" transform="matrix(-0.9397 0.342 -0.342 -0.9397 614.3289 148.3293)" style="fill:#C64757;" width="19.787" height="27.429"/>
<path d="M100.285,45.113c-4.143,0-7.5,3.358-7.5,7.5v11.089c0,4.142,3.357,7.5,7.5,7.5s7.5-3.358,7.5-7.5V52.613
	C107.786,48.471,104.428,45.113,100.285,45.113z"/>
<path d="M100.285,344.883c4.143,0,7.5-3.358,7.5-7.5v-11.089c0-4.142-3.357-7.5-7.5-7.5s-7.5,3.358-7.5,7.5v11.089
	C92.785,341.525,96.143,344.883,100.285,344.883z"/>
<path d="M201.554,45.113c-4.143,0-7.5,3.358-7.5,7.5v11.089c0,4.142,3.357,7.5,7.5,7.5c4.143,0,7.5-3.358,7.5-7.5V52.613
	C209.055,48.471,205.697,45.113,201.554,45.113z"/>
<path d="M201.554,344.883c4.143,0,7.5-3.358,7.5-7.5v-11.089c0-4.142-3.357-7.5-7.5-7.5c-4.143,0-7.5,3.358-7.5,7.5v11.089
	C194.054,341.525,197.411,344.883,201.554,344.883z"/>
<path d="M495.199,364.437H425.84l33.451-12.175c4.882-1.777,8.786-5.36,10.991-10.09c2.205-4.729,2.441-10.023,0.664-14.905
	c-3.389-9.313-110.109-302.524-112.44-308.928C354.827,8.236,343.609,3.008,333.51,6.685l-70.011,25.482v-0.983
	c0-10.753-8.749-19.501-19.501-19.501H166.73c-4.526,0-8.688,1.564-12.001,4.162c-3.313-2.598-7.474-4.162-12.001-4.162H65.462
	c-10.753,0-19.501,8.749-19.501,19.501v328.752c0,1.551,0.201,3.053,0.545,4.5H16.802C7.537,364.436,0,371.974,0,381.237v24.504
	c0,9.265,7.537,16.801,16.802,16.801h7.605v67.148c0,9.265,7.537,16.801,16.802,16.801h24.503c9.265,0,16.802-7.537,16.802-16.801
	v-33.729h155.984c4.143,0,7.5-3.358,7.5-7.5s-3.357-7.5-7.5-7.5H82.515v-18.418h346.971v18.418H273.501c-4.143,0-7.5,3.358-7.5,7.5
	s3.357,7.5,7.5,7.5h155.985v33.729c0,9.265,7.536,16.801,16.801,16.801h24.504c9.265,0,16.802-7.537,16.802-16.801V474.52
	c0-4.142-3.357-7.5-7.5-7.5c-4.143,0-7.5,3.358-7.5,7.5v15.173c0,0.993-0.808,1.8-1.801,1.8h-24.504c-0.992,0-1.8-0.808-1.8-1.8
	c0-6.883,0-59.492,0-67.148h28.106v16.973c0,4.142,3.357,7.5,7.5,7.5c4.143,0,7.5-3.358,7.5-7.5v-16.973h7.605
	c9.265,0,16.801-7.537,16.801-16.801v-24.504C512,371.975,504.464,364.437,495.199,364.437z M456.849,332.398
	c0.407,1.117,0.349,2.336-0.163,3.434s-1.409,1.927-2.526,2.333l-72.181,26.272h-3.839c-0.007-0.003-0.015-0.004-0.022-0.008
	c-1.098-0.512-1.926-1.409-2.332-2.526l-19.572-53.773l81.065-29.505L456.849,332.398z M432.146,264.529l-81.063,29.504
	l-4.25-11.678l81.063-29.505L432.146,264.529z M422.766,238.754l-81.065,29.506L298.22,148.797l81.066-29.506L422.766,238.754z
	 M374.155,105.195L293.091,134.7l-4.25-11.679l81.064-29.505L374.155,105.195z M263.499,49.594c0.486-1.072,1.371-1.962,2.534-2.385
	l72.608-26.427c0.487-0.178,0.991-0.262,1.49-0.262c1.845,0,3.621,1.147,4.277,2.951l20.363,55.949l-81.066,29.506l-20.207-55.522
	V49.594z M263.499,359.937c0-7.535,0.002-254.756,0.002-261.712c0-0.013-0.002-0.026-0.002-0.039v-0.922l97.244,267.173h-97.789
	C263.298,362.99,263.499,361.488,263.499,359.937z M162.231,31.185c0-2.439,2.061-4.5,4.5-4.5h77.268c2.439,0,4.5,2.061,4.5,4.5
	c0,0,0,59.524,0,59.541h-86.268V31.185z M248.498,105.725v12.428h-86.266v-12.428H248.498z M162.231,133.154h86.268v127.13h-86.268
	V133.154z M248.498,275.285v12.428h-86.266v-12.428H248.498z M162.231,302.712h86.268v57.224c0,2.439-2.061,4.5-4.5,4.5h-77.268
	c-2.439,0-4.5-2.061-4.5-4.5V302.712z M60.962,31.185c0-2.439,2.061-4.5,4.5-4.5h77.268c2.439,0,4.5,2.061,4.5,4.5v59.541H60.962
	V31.185z M147.23,105.725v12.428H60.964v-12.428H147.23z M60.962,133.154h86.268v127.13H60.962V133.154z M147.23,275.285v12.428
	H60.964v-12.428H147.23z M60.962,302.712h86.268v57.224c0,2.439-2.061,4.5-4.5,4.5H65.462c-2.439,0-4.5-2.061-4.5-4.5V302.712z
	 M67.514,489.693c0,0.993-0.808,1.8-1.801,1.8H41.209c-0.993,0-1.801-0.808-1.801-1.8v-67.148h28.106
	C67.514,430.201,67.514,482.808,67.514,489.693z M496.999,405.743c0,0.993-0.808,1.8-1.8,1.8c-24.239,0-454.621,0-478.397,0
	c-0.993,0-1.801-0.808-1.801-1.8v-24.504c0-0.993,0.808-1.8,1.801-1.8c4.435,0,473.982,0,478.397,0c0.992,0,1.8,0.808,1.8,1.8
	V405.743z"/>
<path d="M304.369,72.649c1.108,3.046,3.984,4.937,7.049,4.937c0.851,0,1.718-0.146,2.563-0.454c3.893-1.417,5.899-5.72,4.483-9.614
	l-3.792-10.42c-1.416-3.892-5.723-5.902-9.613-4.483c-3.893,1.417-5.9,5.72-4.483,9.614L304.369,72.649z"/>
<path d="M397.973,329.824c1.108,3.046,3.984,4.937,7.049,4.937c0.851,0,1.718-0.146,2.564-0.454
	c3.892-1.417,5.899-5.721,4.482-9.614l-3.792-10.42c-1.416-3.891-5.72-5.903-9.614-4.483c-3.892,1.417-5.899,5.721-4.482,9.614
	L397.973,329.824z"/>
<g>
</g>
<g>
</g>
<g>
</g>
<g>
</g>
<g>
</g>
<g>
</g>
<g>
</g>
<g>
</g>
<g>
</g>
<g>
</g>
<g>
</g>
<g>
</g>
<g>
</g>
<g>
</g>
<g>
</g>
</svg>
