<?xml version="1.0" encoding="utf-8"?>
<!-- Generator: Adobe Illustrator 19.0.0, SVG Export Plug-In . SVG Version: 6.00 Build 0)  -->
<svg version="1.1" id="Layer_1" xmlns="http://www.w3.org/2000/svg" xmlns:xlink="http://www.w3.org/1999/xlink" x="0px" y="0px"
	 viewBox="-49 141 512 512" style="enable-background:new -49 141 512 512;" xml:space="preserve">
<style type="text/css">
	.st0{fill:#FFFFFF;stroke:#000000;stroke-width:4;stroke-miterlimit:10;}
	.st1{fill:#FCFCFC;stroke:#000000;stroke-width:4;stroke-miterlimit:10;}
	.st2{fill:#FFFFFF;stroke:#020202;stroke-width:4;stroke-miterlimit:10;}
	.st3{fill:#FCFCFC;stroke:#020202;stroke-width:4;stroke-miterlimit:10;}
	.st4{fill:#F9F9F9;stroke:#000000;stroke-width:4;stroke-miterlimit:10;}
</style>
<path class="st0" d="M348.8,432.3c18.5,5.5,32,22.6,32,42.8c0,20.3-13.6,37.5-32.1,42.9c0.1-2.3-40.2-4.5-40.2-6.8l7.8-68.6
	L348.8,432.3z"/>
<path class="st0" d="M143.3,296.2l4.2-64.5v0c-0.7-2.5-1.1-5.2-1.1-8c0-16,13-29,29-29c15.3,0,27.8,11.8,28.9,26.8
	c4-2.1,8.5-3.2,13.3-3.2c9,0,17,4.1,22.3,10.5c7.6-12.4,21.3-20.7,37-20.7c23.9,0,43.4,19.4,43.4,43.4c0,3.2-0.4,6.4-1,9.4
	c2.1-0.4,4.3-0.6,6.5-0.6c18.3,0,33.2,14.9,33.2,33.2c0,1.8-0.2,3.6-0.4,5.4c0,0,0.1,0,0.1,0c23.9,0,43.4,19.4,43.4,43.4
	c0,14.5-7.2,27.4-18.1,35.3c3.5,5.3,5.6,11.6,5.6,18.4c0,18.3-14.9,33.2-33.2,33.2c-2.5,0-4.9-0.3-7.3-0.8l-29.5-35.4
	c0-78.3-17.1-44.9-95.4-44.9c-11.6,0-19.4-19.6-30.2-16.9L143.3,296.2z"/>
<path class="st1" d="M70.3,265.6l169.3,108.8C229.1,394.1,122,423.9,122,447.8l-56.8-19.7c-2.3,0.5-4.8,0.8-7.3,0.8
	c-18.3,0-33.2-14.9-33.2-33.2c0-6.8,2.1-13.1,5.6-18.4c-11-7.9-18.1-20.7-18.1-35.3c0-23.9,19.4-43.4,43.4-43.4c0,0,0.1,0,0.1,0
	c-0.3-1.8-0.4-3.5-0.4-5.4C55.3,281.7,61.3,271.5,70.3,265.6z"/>
<path class="st1" d="M348.8,475.2v36c0,2.3-0.1,4.6-0.2,6.8c-2.2,45.8-26.1,85.9-61.6,110.2c-0.3,0.2-0.6,0.4-0.9,0.6
	C263.5,644.1,236.3,653,207,653s-56.5-8.9-79.1-24.1c-0.3-0.2-0.6-0.4-0.9-0.6c-35.5-24.3-59.4-64.4-61.6-110.2
	c-0.1-2.3-0.2-4.5-0.2-6.8v-36v-42.8v-4.2v-35.4c0-23.9,5.9-46.4,16.4-66.2l4.3-0.9c38.7-8.3,71.1-34.5,87.4-70.6
	c10.8-2.7,22.1-4.1,33.7-4.1c78.3,0,141.8,63.5,141.8,141.8v35.4v4.2V475.2L348.8,475.2z"/>
<path class="st2" d="M173.3,255c-7.1,15.9-17.4,29.8-29.9,41.2c-16,14.5-35.7,24.8-57.4,29.4l-4.3,0.9l-11.3-61L47.3,141l100.2,90.7
	l22.6,20.5L173.3,255z"/>
<path class="st0" d="M65.2,392.7v39.7c-18.5,5.5-32,22.6-32,42.8c0,20.3,13.6,37.5,32.1,42.9C65.3,476.3,65.3,434.5,65.2,392.7z"/>
<g>
	<polygon class="st0" points="282.9,361.1 330.6,428.6 282.9,532.5 235.3,428.6 	"/>
	<polygon class="st0" points="178.7,428.6 131.1,532.5 125.9,521.4 83.4,428.6 128.3,365 131.1,361.1 	"/>
</g>
<g>
	<path class="st3" d="M280.4,559.5c10.5,10.5,10.5,27.5,0,38c-5.1,5.1-11.8,7.9-19,7.9s-13.9-2.8-19-7.9c-9.4-9.4-22-14.6-35.4-14.6
		c-13.4,0-26,5.2-35.4,14.6c-5.1,5.1-11.8,7.9-19,7.9s-13.9-2.8-19-7.9c-5.1-5.1-7.9-11.8-7.9-19c0-7.2,2.8-13.9,7.9-19
		c19.6-19.6,45.6-30.3,73.4-30.3h0C234.7,529.2,260.8,539.9,280.4,559.5z"/>
	<path class="st3" d="M207,438.4c22.2,0,40.3,18,40.3,40.3c0,22.3-18,40.3-40.3,40.3h0c-22.3,0-40.3-18-40.3-40.3
		C166.7,456.4,184.8,438.4,207,438.4z"/>
</g>
<path class="st2" d="M152.8,587.7c-2.3,0-4.6-0.9-6.4-2.7c-3.5-3.5-3.5-9.3,0-12.8c16.2-16.2,37.7-25,60.6-25
	c22.9,0,44.4,8.9,60.6,25.1c3.5,3.5,3.5,9.3,0,12.8c-3.5,3.5-9.3,3.5-12.8,0c-12.7-12.7-29.7-19.8-47.8-19.8c-18.1,0-35,7-47.8,19.8
	C157.5,586.9,155.2,587.7,152.8,587.7z"/>
<g>
	<path class="st2" d="M256.5,357.1c-2.3,0-4.6-0.9-6.4-2.7c-3.5-3.5-3.5-9.3,0-12.8c8.8-8.8,20.5-13.6,32.9-13.6
		c12.4,0,24.1,4.8,32.9,13.6c3.5,3.5,3.5,9.3,0,12.8c-3.5,3.5-9.3,3.5-12.8,0c-5.4-5.4-12.5-8.3-20-8.3s-14.7,3-20.1,8.3
		C261.1,356.2,258.8,357.1,256.5,357.1z"/>
	<path class="st2" d="M157.5,357.1c-2.3,0-4.6-0.9-6.4-2.7c-5.4-5.4-12.5-8.3-20.1-8.3c-7.6,0-14.7,3-20,8.3
		c-3.5,3.5-9.3,3.5-12.8,0c-3.5-3.5-3.5-9.3,0-12.8c8.8-8.8,20.4-13.6,32.9-13.6c12.4,0,24.1,4.8,32.9,13.6c3.5,3.5,3.5,9.3,0,12.8
		C162.2,356.2,159.8,357.1,157.5,357.1z"/>
</g>
<g>
	<path class="st4" d="M282.9,456.9c-5,0-9.1-4.1-9.1-9.1v-14.6c0-5,4.1-9.1,9.1-9.1s9.1,4.1,9.1,9.1v14.6
		C292,452.8,287.9,456.9,282.9,456.9z"/>
	<path class="st4" d="M131.1,456.9c-5,0-9.1-4.1-9.1-9.1v-14.6c0-5,4.1-9.1,9.1-9.1c5,0,9.1,4.1,9.1,9.1v14.6
		C140.1,452.8,136.1,456.9,131.1,456.9z"/>
</g>
<circle class="st0" cx="226.3" cy="467.3" r="9.1"/>
</svg>
