<?xml version="1.0" encoding="utf-8"?>
<!-- Generator: Adobe Illustrator 19.0.0, SVG Export Plug-In . SVG Version: 6.00 Build 0)  -->
<svg version="1.1" id="Capa_1" xmlns="http://www.w3.org/2000/svg" xmlns:xlink="http://www.w3.org/1999/xlink" x="0px" y="0px"
	 viewBox="-71 162.7 468.3 468.3" style="enable-background:new -71 162.7 468.3 468.3;" xml:space="preserve">
<style type="text/css">
	.st0{fill:#FFFFFF;stroke:#000000;stroke-width:4;stroke-miterlimit:10;}
</style>
<path class="st0" d="M207.5,420.6c64.1,57.5,101.9,112.9,106.5,193.7H12.3c4.6-80.9,42.4-136.2,106.5-193.7l26.5-23.7l-26.5-23.7
	C54.7,315.6,16.9,260.3,12.3,179.4H314c-4.6,80.9-42.4,136.2-106.5,193.7L181,396.8L207.5,420.6z"/>
<path class="st0" d="M9.4,196.3h307.5c10.3,0,18.7-7.5,18.7-16.8s-8.4-16.8-18.7-16.8H9.4c-10.3,0-18.7,7.5-18.7,16.8
	C-9.4,188.8-1,196.3,9.4,196.3z"/>
<path class="st0" d="M100.9,517.3c-38.6,20-62.3,56.9-62.3,96.8h249.1c0-39.9-23.8-76.9-62.3-96.8l-51.7-26.8c0-64.9,0-81.1,0-146
	l36.5-18.9c25-12.9,41.8-35.3,46.1-60.4c1.2-6.7-4.6-12.9-12.2-12.9h-162c-7.6,0-13.3,6.1-12.2,12.9c4.3,25.1,21.1,47.5,46.1,60.4
	l39.1,20.2c0,63.7,0,79.7,0,143.4L100.9,517.3z"/>
<path class="st0" d="M316.9,597.4H9.4c-10.3,0-18.7,7.5-18.7,16.8c0,9.3,8.4,16.8,18.7,16.8h307.5c10.3,0,18.7-7.5,18.7-16.8
	C335.7,604.9,327.3,597.4,316.9,597.4z"/>
</svg>
