<?xml version="1.0" encoding="iso-8859-1"?>
<!-- Generator: Adobe Illustrator 19.0.0, SVG Export Plug-In . SVG Version: 6.00 Build 0)  -->
<svg version="1.1" id="Capa_1" xmlns="http://www.w3.org/2000/svg" xmlns:xlink="http://www.w3.org/1999/xlink" x="0px" y="0px"
	 viewBox="-49 -420 512 608" style="enable-background:new -49 -420 512 608;" xml:space="preserve">
<polygon style="fill:#ffffff;" points="316,-185 404,-273 316,-361 "/>
<polygon style="display:none;fill:#ffffff;" points="0,25 -88,-63 0,-151 "/>
<path style="fill:#ffffff;" d="M208,131v-296c0-30.928,25.072-56,56-56h59v-104h-59c-88.366,0-160,71.634-160,160v296"/>
<path style="display:none;fill:#ffffff;" d="M104,131V45c0-30.928-25.072-56-56-56H-6v-104h54c88.366,0,160,71.634,160,160v86H104z"
	/>
<path style="fill:#ffffff;" d="M185.459-294.421c1.66,0,3.344-0.415,4.894-1.286l0.492-0.277c4.813-2.708,6.521-8.805,3.813-13.619
	c-2.708-4.813-8.805-6.521-13.619-3.813l-0.492,0.277c-4.813,2.708-6.521,8.805-3.813,13.619
	C178.569-296.257,181.962-294.421,185.459-294.421z"/>
<path d="M-37.771-26.913"/>
<path style="fill:#ffffff;" d="M158.874-287.742c-3.811-3.998-10.141-4.151-14.138-0.34C110.729-255.673,92-211.962,92-165
	c0.5,56.5,1,113,1.5,169.5c6.833,12.167,13.667,24.333,20.5,36.5c-0.333-50.741-0.667-101.482-1-152.223
	c-0.335-0.144-0.664-0.299-1-0.441V-165c0-41.437,16.526-80.007,46.534-108.604C162.532-277.414,162.684-283.744,158.874-287.742z"
	/>
<path style="fill:#ffffff;" d="M411.071-280.071l-88-88c-2.86-2.86-7.162-3.715-10.898-2.167C308.437-368.691,306-365.044,306-361
	v26h-42c-15.438,0-30.742,2.071-45.486,6.156c-5.322,1.475-8.441,6.985-6.967,12.307c1.475,5.322,6.983,8.439,12.307,6.967
	C236.859-313.173,250.367-315,264-315h52c5.523,0,10-4.477,10-10v-11.858L389.858-273L326-209.142V-221c0-5.523-4.477-10-10-10h-52
	c-36.393,0-66,29.607-66,66v286h-28V54.078c0-5.523-4.477-10-10-10s-10,4.477-10,10V121h-36V45c0-17.846-7.142-34.036-18.69-45.927
	C94.937-0.613,94.505-0.353,94-0.178v45.177c0,38.197,0,86,0,86c0,5.523,4.477,10,10,10h104c5.523,0,10-4.477,10-10V-165
	c0-25.364,20.636-46,46-46h42v26c0,4.044,2.437,7.691,6.173,9.239s8.038,0.693,10.898-2.167l88-88
	C414.976-269.834,414.976-276.166,411.071-280.071z"/>
<path d="M10,24.999"/>
<path d="M3.827,34.238"/>
<path style="display:none;" d="M150,15.47c0,2.63,1.07,5.21,2.93,7.07c1.86,1.86,4.44,2.93,7.07,2.93s5.21-1.07,7.07-2.93
	S170,18.1,170,15.47c0-2.64-1.07-5.21-2.93-7.07c-1.86-1.87-4.44-2.93-7.07-2.93s-5.21,1.06-7.07,2.93
	C151.07,10.26,150,12.83,150,15.47z"/>
</svg>
