<?xml version="1.0"?>
<svg xmlns="http://www.w3.org/2000/svg" height="512px" viewBox="0 -1 500 500" width="512px"><path d="m282 401.617188v-112h188l30-40-30-40h-188v-80h116l30-40-30-40h-116v-28.28125l-32-21.335938-32 21.335938v28.28125h-116l-30 40 30 40h116v112h-188l-30 40 30 40h188v112h-85.769531l-16 48h-82.230469v16h432v-16h-82.238281l-16-48h-85.761719v-16h-16v16h-32v-304h32v272zm180-176 18 24-18 24h-180v-48zm-95.097656 256h-233.804688l10.671875-32h212.46875zm-328.902344-176-18-24 18-24h180v48zm196-275.722657 16-10.664062 16 10.664062v19.722657h-32zm-142 59.722657 18-24h280l18 24-18 24h-280zm0 0" fill="#FFFFFF"/><path d="m482 481.617188h16v16h-16zm0 0" fill="#FFFFFF"/><path d="m2 481.617188h16v16h-16zm0 0" fill="#FFFFFF"/></svg>
