<?xml version="1.0" encoding="iso-8859-1"?>
<!-- Generator: Adobe Illustrator 19.0.0, SVG Export Plug-In . SVG Version: 6.00 Build 0)  -->
<svg version="1.1" id="Capa_1" xmlns="http://www.w3.org/2000/svg" xmlns:xlink="http://www.w3.org/1999/xlink" x="0px" y="0px"
	 viewBox="-49 141 512 512" style="enable-background:new -49 141 512 512;" xml:space="preserve">
<path style="fill:#585A60;" d="M184.527,636.181L-32.178,419.475c-12.393-12.393-12.393-32.558,0-44.95l216.705-216.706
	c12.419-12.42,32.527-12.424,44.948,0l216.707,216.706c12.391,12.395,12.39,32.559,0,44.95L229.475,636.181
	C217.056,648.603,196.949,648.604,184.527,636.181z"/>
<path style="fill:#414356;" d="M-13.949,410.359c-7.366-7.366-7.366-19.351,0-26.718
	c137.747-137.747,118.195-117.958,233.008-232.772c-11.251-4.609-25.011-2.572-34.532,6.949L-32.178,374.525
	c-12.393,12.393-12.393,32.558,0,44.95l216.705,216.706c9.473,9.474,23.217,11.587,34.54,6.945
	C160.502,584.563,116.211,540.519-13.949,410.359z"/>
<path style="fill:#F2D422;" d="M421.797,392.758L211.548,182.509c-2.343-2.344-6.143-2.344-8.485,0
	C-21.618,407.189-8.945,393.32-8.945,397c0,3.677-12.729-10.243,212.007,214.493c2.341,2.341,6.142,2.343,8.485,0l210.249-210.251
	C424.14,398.9,424.14,395.101,421.797,392.758z"/>
<path style="fill:#E5C213;" d="M18.651,397c0-3.682-11.977,9.491,202.453-204.937l-9.555-9.555c-2.343-2.344-6.143-2.344-8.485,0
	C-21.618,407.189-8.945,393.32-8.945,397c0,3.677-12.729-10.243,212.007,214.493c2.341,2.341,6.142,2.343,8.485,0l9.555-9.555
	C6.699,387.532,18.651,400.678,18.651,397z"/>
<path style="fill:#585A60;" d="M330.773,372.65l-45.25-28.64c-3.469-2.199-8.014,0.3-8.014,4.41v14.688
	c-20.917,3.347-42.627,14.365-58.888,32.556v-78.397h12.191c2.891,0,5.221-2.345,5.221-5.221c0-2.145,1.636,1.071-29.451-48.042
	c-2.047-3.236-6.775-3.235-8.823,0l-28.64,45.249c-2.2,3.477,0.307,8.014,4.411,8.014h13.088v199.155c0,8.838,7.164,16,16,16
	s16-7.162,16-16c0-27.064-4.936-104.4,58.888-120.622v9.9c0,4.107,4.535,6.606,8.014,4.412l45.25-28.642
	C334.004,379.427,334.009,374.697,330.773,372.65z"/>
<path style="fill:#414356;" d="M205.31,516.422V329.524c0-11.428-6.672-12.215-8.056-12.256c-4.609,0-7.779,0.615-9.606-2.701
	c-0.918-1.668-0.855-3.703,0.163-5.313l23.707-37.454l-4.934-7.795c-2.047-3.236-6.775-3.235-8.823,0l-28.64,45.249
	c-2.2,3.477,0.307,8.014,4.411,8.014h13.088v199.155c0,13.043,14.803,20.579,25.346,12.969
	C207.94,526.487,205.31,521.768,205.31,516.422z"/>
<path style="fill:#2D2F3D;" d="M451.485,369.221L234.778,152.516c-15.349-15.354-40.197-15.354-55.556-0.001L-37.482,369.221
	c-15.317,15.317-15.317,40.24,0,55.558l216.704,216.706c15.354,15.354,40.208,15.352,55.555,0l216.709-216.707
	C466.799,409.462,466.799,384.539,451.485,369.221z M440.879,414.171L224.17,630.878c-9.484,9.488-24.85,9.491-34.341-0.001
	L-26.875,414.171c-9.472-9.47-9.472-24.873,0-34.343l216.703-216.706c9.493-9.487,24.853-9.494,34.343,0l216.707,216.705
	C450.345,389.296,450.345,404.704,440.879,414.171z"/>
<path d="M212.608,172.962c-2.929-2.928-7.678-2.928-10.606,0C-31.412,406.374-18.93,392.408-18.93,397
	c0,4.561-12.526-9.419,220.932,224.039c2.927,2.927,7.678,2.928,10.606,0l92.551-92.553c2.929-2.93,2.929-7.678,0-10.607
	c-2.929-2.928-7.678-2.928-10.606,0l-87.248,87.25L-0.824,397l208.129-208.127L415.432,397l-96.167,96.169
	c-2.929,2.93-2.929,7.678,0,10.607c2.929,2.928,7.678,2.929,10.606-0.001l101.471-101.472c2.929-2.93,2.929-7.678,0-10.607
	L212.608,172.962z"/>
<path d="M186.924,417.498c-4.142,0-7.5,3.357-7.5,7.5v91.424c0,12.958,10.542,23.501,23.501,23.501s23.501-10.542,23.501-23.501
	c0-26.592-4.656-89.406,43.899-110.183c0.414,9.764,11.254,15.42,19.514,10.21l45.25-28.641c7.893-4.997,7.885-16.508,0-21.497
	l-45.246-28.638c-8.452-5.357-19.529,0.727-19.529,10.745v8.518c-15.746,3.624-31.059,10.989-43.888,21.29v-53.461
	c4.489,0,11.746,0.846,15.839-6.592c2.204-4.013,2.111-8.964-0.399-12.933l-28.64-45.249c-4.997-7.896-16.51-7.884-21.499,0
	l-28.642,45.25c-5.349,8.457,0.737,19.523,10.749,19.523h5.588v65.231c0,4.143,3.358,7.5,7.5,7.5s7.5-3.357,7.5-7.5v-72.731
	c0-4.143-3.358-7.5-7.5-7.5h-8.948l24.501-38.708l24.501,38.708h-8.052c-4.142,0-7.5,3.357-7.5,7.5v78.397
	c0,6.882,8.527,10.105,13.091,4.999c15.054-16.839,35.213-27.065,54.482-30.149c3.638-0.583,6.315-3.722,6.315-7.406v-10.547
	l38.71,24.5l-38.71,24.502c0-5.438,0.65-8.925-2.896-11.683c-1.827-1.421-4.208-1.92-6.452-1.348
	c-7.145,1.816-17.866,5.676-28.367,13.752c-38.475,29.598-36.175,81.188-36.175,114.139c0,4.687-3.813,8.5-8.5,8.5
	c-4.687,0-8.5-3.813-8.5-8.5v-91.424C194.424,420.856,191.066,417.498,186.924,417.498z"/>
<path style="fill:#585A60;" d="M69.035,381.471l44.135,28.642c3.393,2.194,7.817-0.305,7.817-4.412v-9.9
	c62.252,16.222,57.437,93.558,57.437,120.622c0,8.838,6.988,16,15.606,16s15.606-7.162,15.606-16V317.268h12.766
	c4.003,0,6.448-4.537,4.302-8.014l-27.935-45.249c-1.998-3.235-6.609-3.236-8.606,0c-30.321,49.113-28.726,45.897-28.726,48.042
	c0,2.876,2.273,5.221,5.092,5.221h11.891v78.397c-15.86-18.191-37.036-29.209-57.437-32.556v-14.688c0-4.11-4.433-6.609-7.817-4.41
	l-44.135,28.64C65.875,374.698,65.88,379.428,69.035,381.471z"/>
<path d="M226,434.667c-0.889,26.889-1.778,53.778-2.667,80.667c-3.366,3.392-12.823,12.175-21.15,9.587
	c-4.677-1.454-8.5-5.635-8.5-8.5c0-32.951,2.3-84.541-36.175-114.139c-10.501-8.076-21.222-11.936-28.367-13.752
	c-2.244-0.572-4.625-0.073-6.452,1.348c-3.546,2.758-2.896,6.245-2.896,11.683l-38.71-24.502l38.71-24.5v10.547
	c0,3.684,2.677,6.823,6.315,7.406c19.269,3.084,39.428,13.31,54.482,30.149c4.564,5.106,13.091,1.883,13.091-4.999v-78.397
	c0-4.143-3.358-7.5-7.5-7.5h-8.052l24.501-38.708l24.501,38.708h-8.948c-4.142,0-7.5,3.357-7.5,7.5v72.731
	c0,4.143,3.358,7.5,7.5,7.5s7.5-3.357,7.5-7.5v-65.231h5.588c10.012,0,16.098-11.066,10.749-19.523l-28.642-45.25
	c-4.989-7.884-16.502-7.896-21.499,0l-28.64,45.249c-2.51,3.969-2.603,8.92-0.399,12.933c4.093,7.438,11.35,6.592,15.839,6.592
	v53.461c-12.829-10.301-28.142-17.666-43.888-21.29v-8.518c0-10.018-11.077-16.102-19.529-10.745l-45.246,28.638
	c-7.885,4.989-7.893,16.5,0,21.497l45.25,28.641c8.26,5.21,19.1-0.446,19.514-10.21c48.555,20.777,43.899,83.591,43.899,110.183
	c0,12.959,10.542,23.501,23.501,23.501s23.501-10.543,23.501-23.501c1.884-29.918,3.768-59.837,5.652-89.755
	C229.556,429.333,227.778,432,226,434.667z"/>
</svg>
