<?xml version="1.0" encoding="utf-8"?>
<!-- Generator: Adobe Illustrator 22.1.0, SVG Export Plug-In . SVG Version: 6.00 Build 0)  -->
<svg version="1.1" id="Слой_1" xmlns="http://www.w3.org/2000/svg" xmlns:xlink="http://www.w3.org/1999/xlink" x="0px" y="0px"
	 viewBox="0 0 1600 1062" style="enable-background:new 0 0 1600 1062;" xml:space="preserve">
<style type="text/css">
	.st0{fill: grey;}
</style>
<path class="st0" d="M1.8,404.6c-45,391-10.6,509.8,41.4,527.4c50.4,17.1,93.3-69.1,191.8-64.5c110.8,5.1,123.6,117,266.5,171.3
	c110.9,42.1,219.7,19,313-0.8c136.1-28.9,132.5-65.7,276.8-92.7c61.1-11.4,153.5-27.9,266.2-7.9c121.3,21.5,149.6,64.7,189.9,50.7
	c57.9-20.1,102.5-144.8,54.4-587.7c-0.4-134.8-0.7-269.6-1.1-404.4L0.7,0.1C0.7,0.1,1.4,252.2,1.8,404.6z"/>
</svg>
